<!-- Generated by IcoMoon.io -->
<svg version="1.1" xmlns="http://www.w3.org/2000/svg" width="512" height="512" viewBox="0 0 512 512">
<title></title>
<g id="icomoon-ignore">
</g>
<path d="M480 208v80c0 26.467-21.533 48-48 48-8.552 0-16.588-2.247-23.549-6.184-8.538 13.331-23.48 22.184-40.451 22.184-12.282 0-23.502-4.638-32-12.252-8.498 7.614-19.718 12.252-32 12.252-5.607 0-10.993-0.967-16-2.742v114.742c0 26.467-21.533 48-48 48-26.468 0-48-21.533-48-48v-197.338l-88.009 46.918c-7.269 4.199-15.563 6.42-23.991 6.42-26.468 0-48-21.533-48-48 0-13.184 5.236-25.476 14.744-34.613 0.124-0.119 0.248-0.235 0.375-0.35l119.585-109.037h-22.704c-8.837 0-16-7.163-16-16v-96c0-8.837 7.163-16 16-16h320c8.837 0 16 7.163 16 16v96c0 8.837-7.163 16-16 16h-22.111l36.421 72.845c1.112 2.221 1.69 4.671 1.69 7.155zM448 80c0-8.837-7.163-16-16-16s-16 7.163-16 16 7.163 16 16 16 16-7.163 16-16zM448 211.777l-41.889-83.777h-191.912l-145.41 132.584c-3.090 3.033-4.789 7.081-4.789 11.416 0 8.822 7.178 16 16 16 2.729 0 5.306-0.654 7.662-1.947 0.265-0.162 0.535-0.316 0.811-0.463l112-59.708c4.96-2.644 10.942-2.493 15.76 0.4 4.819 2.891 7.767 8.098 7.767 13.718v224c0 8.822 7.178 16 16 16s16-7.178 16-16v-160c0-8.836 7.163-16 16-16s16 7.164 16 16c0 8.822 7.178 16 16 16s16-7.178 16-16c0-8.837 7.163-16 16-16s16 7.163 16 16c0 8.822 7.178 16 16 16s16-7.178 16-16v-16c0-8.837 7.163-16 16-16s16 7.163 16 16c0 8.822 7.178 16 16 16s16-7.178 16-16v-76.223z"></path>
</svg>
